<?xml version="1.0" encoding="utf-8"?>
<!-- Generator: Adobe Illustrator 20.0.0, SVG Export Plug-In . SVG Version: 6.00 Build 0)  -->
<svg version="1.1" id="Layer_1" xmlns="http://www.w3.org/2000/svg" xmlns:xlink="http://www.w3.org/1999/xlink" x="0px" y="0px"
	 viewBox="0 0 83.1 85" style="enable-background:new 0 0 83.1 85;" xml:space="preserve">
<style type="text/css">
	.st0{fill:#FFFFFF;}
</style>
<g>
	<path class="st0" d="M42,0L0,23.9v8.6h6.4v29.7h70.1V32.5h6.6v-8.4L42,0z M68.4,54.6H15V24.8L42,9l26.4,15.8
		C68.4,24.8,68.4,54.6,68.4,54.6z"/>
	<polygon class="st0" points="27.6,36.2 27.6,28.8 55.6,28.8 55.6,36.2 	"/>
	<polygon class="st0" points="27.6,39.8 55.6,39.8 55.6,47.1 27.6,47.1 	"/>
	<path class="st0" d="M47.8,75.7h-4.9V85h4.8c3.8,0,6.1-0.8,6.1-4.5C53.8,76.7,51.3,75.7,47.8,75.7z M47.5,83h-2.1v-5.3h2.3
		c1.7,0,3.2,0.9,3.2,2.8C50.9,82.6,49.5,83,47.5,83z"/>
	<path class="st0" d="M76.3,81.1c1.8-0.2,2.6-0.9,2.6-2.5c0-2.2-1.1-2.9-3.7-2.9h-6.8V85H71v-3.9h2.4l2.7,3.9h2.8L76.3,81.1z
		 M74.8,79.1H71v-1.4h3.8c1.1,0,1.5,0.1,1.5,0.7C76.4,79.1,76.1,79.1,74.8,79.1z"/>
	<polygon class="st0" points="28.7,75.7 28.7,85 31.2,85 31.2,79.3 36.1,85 39,85 39,75.7 36.6,75.7 36.6,81.5 31.7,75.7 	"/>
	<polygon class="st0" points="4.6,75.7 4.6,85 13.9,85 13.9,83 7.2,82.9 7.2,75.7 	"/>
	<polygon class="st0" points="16.5,85 25.5,85 25.5,83 19.2,83 19.2,81 24.5,81 24.5,79.1 19.2,79.1 19.2,77.7 25.5,77.7 25.5,75.7 
		16.5,75.7 	"/>
	<polygon class="st0" points="56.6,75.7 56.6,85 65.5,84.9 65.5,83 59.2,83 59.2,81 64.6,81 64.6,79.1 59.2,79.1 59.2,77.7 
		65.5,77.7 65.5,75.7 	"/>
	<path class="st0" d="M27.3,64.9h-2L23,73.3h1.8l0.5-1.9h2.1l0.5,1.9h1.9L27.3,64.9z M25.6,70.1l0.7-3.3l0.8,3.3H25.6z"/>
	<path class="st0" d="M15.1,72.2c0.4-0.7,0.5-1.2,0.5-2.2v-1.8c0-2.1-0.5-3.5-2.8-3.5c-2.1,0-2.8,1.1-2.8,3.3v2.2
		c0,2.8,1.6,3,6.5,2.9l0.1-0.6L15.1,72.2z M13.8,70.2c0,1.6-0.1,1.9-1.1,1.9c-0.8,0-1-0.5-1-2v-2c0-1.6,0.1-2,1.1-2.1
		c0.9,0,1,0.2,1,1.9V70.2z"/>
	<path class="st0" d="M57.6,71.1c0,1.3,0.8,2.4,2.7,2.4c1.5,0,2.9-1.1,2.9-2.3c0-2-3.8-3-3.8-4.2c0-0.5,0.5-0.7,1-0.7
		c0.7,0,1,0.5,1.4,1.2l1.2-0.5c-0.1-1.2-1-2.2-2.7-2.2c-1.4,0-2.5,0.7-2.5,2.2c0,2.3,3.8,3,3.8,4.5c0,0.6-0.3,0.8-1,0.8
		s-1.2-0.4-1.4-1.3L57.6,71.1L57.6,71.1z"/>
	<path class="st0" d="M47.7,64.7c-1.8,0-2.8,1-2.8,3.2v2.7c0,2.1,0.6,2.9,2.8,2.9c2.2,0,2.8-1,2.8-3.2v-2.6
		C50.6,65.6,50,64.7,47.7,64.7z M48.8,70.2c0,1.5-0.4,1.9-1.1,1.9c-0.9,0-1-0.6-1-1.8v-2.6c0-1.1,0.1-1.8,1-1.8c1,0,1.1,0.8,1.1,1.8
		V70.2z"/>
	<path class="st0" d="M73.3,70.2c0,2.5,0.7,3.2,3.1,3.2c1.8,0,2.3-0.8,2.3-1.8V69h-2.4v1.3h0.8v0.9c0,0.7-0.2,1.1-0.8,1.1
		c-1.2,0-1.3-0.8-1.3-2v-1.9c0-1.4,0.1-2.3,1.3-2.3c0.8,0,1.3,0.6,1.4,1.4l1.2-0.5c-0.1-1.4-1.1-2.2-2.7-2.2c-2.3,0-2.8,1.3-2.8,3.1
		L73.3,70.2L73.3,70.2z"/>
	<path class="st0" d="M51.3,65v4.8c0,2.8,0.5,3.8,3,3.8c1.8,0,2.5-1.1,2.5-3.5V65h-1.7v4.8c0,1.9-0.1,2.3-1,2.3s-1-0.7-1-2.5v-4.8
		L51.3,65L51.3,65z"/>
	<polygon class="st0" points="66.9,65 66.9,73.4 68.3,73.4 68.3,67.7 70.3,73.4 72.4,73.4 72.4,65 71.1,65 71.1,70.2 69.1,65 	"/>
	<path class="st0" d="M17.2,65v5.1c0,2.3,0.2,3.4,2.6,3.4c2.7,0,2.8-1.3,2.8-3.7V65h-1.6v4.9c0,1.7-0.2,2.2-1.1,2.2
		c-0.9,0-1-0.4-1-2.3V65L17.2,65L17.2,65z"/>
	<polygon class="st0" points="38.5,65 38.5,73.4 40.1,73.4 40.1,69.6 42.1,69.6 42.1,73.4 43.8,73.4 43.8,65 42.1,65 42.1,68.2 
		40.1,68.2 40.1,65 	"/>
	<polygon class="st0" points="4.5,65 4.5,73.4 8.7,73.4 8.7,72.1 6.1,72.1 6.1,69.7 8.5,69.7 8.5,68.5 6.1,68.5 6.1,66.2 8.7,66.2 
		8.7,65 	"/>
	<polygon class="st0" points="30.4,65 30.4,73.4 34.2,73.4 34.2,72.1 31.8,72.1 31.8,65 	"/>
	<polygon class="st0" points="64.1,65 64.1,73.4 65.6,73.4 65.6,65 	"/>
</g>
</svg>
