<?xml version="1.0" standalone="no"?>
<!DOCTYPE svg PUBLIC "-//W3C//DTD SVG 20010904//EN"
 "http://www.w3.org/TR/2001/REC-SVG-20010904/DTD/svg10.dtd">
<svg version="1.0" xmlns="http://www.w3.org/2000/svg"
 width="890.000000pt" height="890.000000pt" viewBox="0 0 890.000000 890.000000"
 preserveAspectRatio="xMidYMid meet">
<metadata>
Created by potrace 1.11, written by Peter Selinger 2001-2013
</metadata>
<g transform="translate(0.000000,890.000000) scale(0.100000,-0.100000)"
fill="#000000" stroke="none">
<path d="M0 5858 l0 -3043 337 650 c185 358 562 1087 839 1620 l502 970 324 3
324 2 143 -1042 c79 -574 145 -1055 148 -1069 l5 -27 114 39 c128 44 335 99
469 125 50 9 91 18 92 18 1 1 81 418 178 926 96 509 180 951 187 983 l11 57
1093 0 c602 0 1094 -3 1094 -7 0 -5 -18 -104 -40 -222 -22 -117 -40 -217 -40
-222 0 -5 -351 -9 -825 -9 l-825 0 -5 -22 c-3 -13 -64 -327 -136 -698 -71
-371 -132 -684 -135 -695 -5 -19 -1 -20 153 -17 402 9 873 -65 1258 -198 239
-83 336 -144 375 -236 16 -35 55 -74 64 -62 5 6 446 2345 446 2365 0 18 8 20
108 26 693 42 1108 31 1373 -37 254 -64 470 -193 621 -371 67 -78 149 -236
173 -330 82 -322 1 -649 -226 -920 -149 -178 -387 -334 -625 -412 -46 -15 -84
-32 -84 -38 0 -7 17 -17 38 -23 65 -20 234 -107 298 -154 204 -151 331 -356
379 -611 19 -102 19 -309 0 -420 -47 -270 -184 -519 -394 -720 -269 -256 -625
-397 -1141 -453 -186 -21 -726 -23 -975 -5 -162 12 -364 37 -373 46 -3 3 46
275 108 605 63 330 110 603 106 607 -19 19 -598 3 -786 -22 -61 -9 95 44 255
85 203 52 341 71 515 71 217 0 367 -32 515 -109 81 -43 180 -131 225 -202 18
-28 36 -50 40 -50 13 0 77 133 90 189 15 64 8 146 -16 192 -57 113 -146 173
-411 280 -244 98 -464 205 -519 253 -23 19 -51 56 -63 81 -26 55 -64 76 -253
139 -228 76 -487 130 -748 156 -102 10 -567 17 -575 8 -2 -2 -101 -522 -222
-1156 l-218 -1152 -490 2 -490 3 -114 915 c-63 503 -115 917 -117 919 -6 6
-318 -161 -469 -251 -461 -277 -980 -700 -1473 -1202 l-212 -216 0 -885 0
-885 4450 0 4450 0 0 4450 0 4450 -4450 0 -4450 0 0 -3042z m4993 -2349 c50
-16 167 -74 167 -82 0 -1 -37 -3 -83 -4 -45 -1 -115 -9 -155 -17 -91 -20 -125
-20 -161 -1 -53 27 -48 69 12 105 44 27 139 26 220 -1z"/>
<path d="M6854 5650 c-89 -8 -205 -28 -221 -38 -5 -4 -24 -81 -41 -172 -17
-91 -78 -411 -136 -712 -58 -301 -106 -551 -106 -554 0 -3 138 -4 308 -1 222
4 331 10 392 21 506 97 811 387 837 797 18 271 -89 467 -312 574 -169 81 -423
111 -721 85z"/>
<path d="M1810 5393 c-40 -93 -106 -244 -147 -338 -41 -93 -179 -377 -307
-630 -206 -407 -896 -1839 -896 -1860 0 -5 53 43 118 106 406 396 922 764
1420 1013 l113 57 -6 32 c-34 200 -157 1213 -186 1535 -13 138 -26 252 -30
252 -4 0 -39 -75 -79 -167z"/>
<path d="M3075 3774 c-211 -57 -405 -123 -405 -139 0 -8 20 -159 45 -337 24
-178 71 -521 104 -763 34 -242 64 -453 68 -468 6 -21 36 120 117 545 59 315
135 712 167 882 33 169 59 310 59 312 0 8 -27 2 -155 -32z"/>
<path d="M6255 3719 c-11 -46 -45 -234 -45 -249 0 -8 24 -28 53 -44 328 -181
439 -463 295 -750 -41 -83 -106 -171 -170 -232 -61 -59 -198 -168 -203 -162
-2 2 1 26 7 53 12 56 -2 156 -29 209 -22 44 -82 116 -97 116 -13 0 -134 -615
-124 -626 16 -16 241 -26 483 -21 218 4 288 9 365 25 544 115 833 417 856 892
20 414 -203 682 -651 782 -77 18 -137 21 -412 25 l-322 5 -6 -23z"/>
</g>
</svg>
